<?xml version="1.0" encoding="UTF-8"?>
<svg id="Layer_1" data-name="Layer 1" xmlns="http://www.w3.org/2000/svg" viewBox="0 0 456.87 84.24">
  <defs>
    <style>
      .cls-1 {
        font-family: CalisMTBol, 'Calisto MT';
        font-size: 24px;
      }

      .cls-1, .cls-2, .cls-3 {
        fill: #fff;
      }

      .cls-4, .cls-5 {
        font-family: OCRAExtended, 'OCR A Extended';
        font-size: 36px;
      }

      .cls-4, .cls-6 {
        fill: #5fe1e6;
      }

      .cls-7 {
        fill: none;
      }

      .cls-3, .cls-6 {
        stroke-width: 0px;
      }
    </style>
  </defs>
  <g>
    <path class="cls-6" d="M67.27,69.53c0-9.58,0-19.16,0-28.74,0-1.03,0-2.07,0-3.1,0-.9-.01-1.71.73-2.49.9-.96.68-2.15-.31-3.03-.87-.78-1.85-.77-2.74-.02-1.03.88-1.01,2-.34,3.08.32.52.74.9.74,1.63.04,11-.22,22-.04,33.06-1-2.63-1.9-5.31-3-7.89-4.04-9.48-7.59-19.24-14.07-27.39-.56-.71-.24-1.08.19-1.58,4.54-5.22,8.16-11.02,10.34-17.7.23-.71.48-.89,1.17-.61,1.39.57,2.86.97,4.23,1.59,1.53.69,2.95.71,4.5.04,1.53-.67,3.34-1.85,4.66-1.47,1.29.37,1.27,2.82,1.95,4.31,2.25,4.98,5.12,9.52,8.69,13.59.74.84.83,1.37.11,2.28-3.19,4.08-5.73,8.57-7.84,13.34-3.09,6.97-6.33,13.86-8.97,21.1Z"/>
    <path class="cls-6" d="M60.92,83.56c-6.65-1.99-13.43-2.68-20.24-3.09-9.55-.58-19.04.06-28.5,1.31-3.59.47-7.17,1.01-10.7,1.82-1.18.27-1.57.03-1.45-1.29.65-6.97,1.24-13.94,1.85-20.91.44-5.09.93-10.17,1.31-15.26.1-1.29.47-1.69,1.72-1.34,1.88.53,3.78.96,5.68,1.38.95.21,1.44.76,1.01,1.66-.42.87.76,2.51-1.21,2.63-2.87.17-2.9.19-3.23,3.3-.81,7.7-1.6,15.4-2.39,23.1-.21,2.05-.19,2.07,1.79,1.71,9.46-1.75,19-2.53,28.61-2.09,8.46.39,16.7,1.88,24.35,5.87.45.23.88.5,1.3.77.06.04.05.2.11.43Z"/>
    <path class="cls-6" d="M133.07,83.93c-20.24-4.03-40.38-5.59-60.64-.95,3.82-2.32,7.91-3.82,12.19-4.78,11.82-2.63,23.68-2.14,35.56-.54,2.43.33,4.84.75,7.24,1.26,1,.21,1.11-.1,1.02-.98-.71-6.96-1.4-13.92-2.1-20.88-.17-1.71-.43-3.42-.49-5.13-.04-1.05-.38-1.48-1.38-1.35-.05,0-.11,0-.17,0-2.53-.09-2.94-.61-2.8-3.32.03-.62.3-.77.77-.88,2.22-.52,4.44-1.04,6.66-1.58.96-.24.96.41,1.02,1.06.39,4.51.78,9.03,1.16,13.54.66,7.77,1.3,15.54,1.95,23.32.03.34,0,.68,0,1.23Z"/>
    <path class="cls-6" d="M44.86,37.63c-4.8-3.43-10.08-4.82-15.83-4.64-.84.03-1.14.32-1.22,1.19-.86,8.56-1.74,17.11-2.66,25.66-.14,1.28.08,1.75,1.51,1.78,8.29.18,16.21,2,23.55,6.1,2.55,1.42,4.85,3.19,6.91,5.35-.59.52-.92.01-1.22-.17-10.24-6.28-21.29-8.4-33.06-6.84-2.6.34-2.53.36-2.28-2.42.88-9.65,1.72-19.3,2.57-28.96.19-2.17.44-4.34.59-6.51.06-.83.33-1.12,1.12-.97,5.77,1.13,11.39,2.72,16.3,6.23,1.53,1.09,2.89,2.41,3.72,4.19Z"/>
    <path class="cls-6" d="M75.94,72.98c2.84-3.28,6.49-5.35,10.32-7.06,6.46-2.89,13.25-4.26,20.28-4.29,1.46,0,1.59-.52,1.46-1.79-.89-8.43-1.76-16.87-2.52-25.32-.12-1.35-.64-1.59-1.73-1.62-5.45-.16-10.43,1.37-15.03,4.33-.09-.09-.18-.18-.26-.27,1.59-2.48,3.91-4.05,6.4-5.36,4.19-2.22,8.7-3.45,13.3-4.35,1.19-.24,1.41.32,1.49,1.33.57,7.14,1.17,14.28,1.76,21.42.41,4.91.8,9.83,1.27,14.73.12,1.25.02,1.67-1.41,1.44-12.53-2.08-24.2.55-35.14,7.02-.06-.07-.12-.14-.19-.2Z"/>
    <path class="cls-3" d="M58.75,78.71c-10.65-4.74-21.84-6.15-33.33-5.69-4.62.19-9.22.68-13.77,1.6-1.17.24-1.51.06-1.38-1.33,1.11-12.05,2.15-24.11,3.15-36.17.1-1.25.33-1.67,1.65-1.37,1.96.44,3.91.88,5.84,1.43,2,.57.59,2.1.8,3.16.23,1.14-.68,1.03-1.42,1.04-2.57.03-2.56.04-2.83,2.75-.82,8.16-1.63,16.32-2.52,24.47-.12,1.11.03,1.38,1.13,1.3,5.62-.44,11.25-.54,16.86.02,8.08.81,16.01,2.21,23.16,6.51,1,.6,2.02,1.19,2.84,2.06-.07.07-.14.14-.2.22Z"/>
    <path class="cls-3" d="M73.74,78.38c6.04-4.49,12.92-6.59,20.12-7.75,7.52-1.21,15.08-1.39,22.66-.72,1.26.11,1.78-.08,1.62-1.59-.88-8.32-1.72-16.66-2.45-25-.16-1.77-1.02-2-2.38-1.97-.81.02-1.96.4-1.84-1.15.09-1.19-.89-2.81,1.38-3.12,1.87-.25,3.69-.83,5.53-1.26.84-.2,1.32-.08,1.4,1.02.87,10.92,1.78,21.84,2.69,32.76.1,1.26.15,2.52.34,3.77.2,1.38-.38,1.51-1.49,1.29-4.76-.94-9.57-1.56-14.42-1.72-11.02-.36-21.79.88-32.03,5.39-.36.16-.7.3-1.12.05Z"/>
    <path class="cls-3" d="M81.59,7.48c-3.41-1.35-6.93-2.46-10.2-4.11-3.43-1.73-6.58-1.78-9.92.06-1.6.88-3.38,1.4-5.28,2.16,3.85,1.73,7.47,2.18,11.1.16.56-.31,1.19-.65,1.56.16.32.7-.29,1.02-.78,1.29-3.45,1.93-7.02,1.99-10.65.67-2.26-.82-4.5-1.7-6.91-1.9-2.17-.18-4.22.15-5.97,1.6-.42.35-1.19.7-.31,1.43.35.29.05.64-.11.92-.64,1.08-1.26,2.16-1.96,3.2-.8,1.18-1.91,1.42-3.05.65-1.11-.74-1.22-1.86-.57-3.02.53-.94,1.11-1.85,1.64-2.79.37-.65.71-1.2,1.53-.57.4.31.71.08,1-.25,2.66-2.96,6.06-3.11,9.58-2.57.93.14,1.74.08,2.58-.26,3.37-1.34,6.76-2.64,10.12-4.01.99-.4,1.9-.42,2.9-.02,4.46,1.78,8.94,3.51,13.41,5.26.97.38,1.93.82,1.96,2.06.03,1.34-.97,1.79-2.02,2.17-4.5,1.66-9,3.32-13.49,5.02-.9.34-1.7.33-2.58,0-4.02-1.52-8.05-3.01-12.08-4.5-.1-.04-.22-.06-.31-.11-.55-.3-1.5-.35-1.19-1.32.32-.99,1.1-.48,1.69-.27,3.2,1.17,6.46,2.19,9.55,3.6,2.53,1.15,4.76,1.1,7.29,0,3.73-1.63,7.6-2.89,11.42-4.31.02-.14.04-.27.06-.41Z"/>
    <path class="cls-6" d="M88.73,37.23c-.11.25-.35.38-.51.21-.22-.24.15-.31.24-.47.09.09.18.18.26.27Z"/>
    <path class="cls-6" d="M57.55,73.58c-.05.12-.09.21-.13.3-.07-.04-.17-.07-.21-.13-.1-.16-.04-.3.13-.33.06-.01.15.11.21.17Z"/>
    <path class="cls-6" d="M76.13,73.18c-.13.04-.35.14-.37.1-.12-.18.02-.26.18-.31.07.06.13.13.19.2Z"/>
    <path class="cls-6" d="M58.95,78.49c.14.05.28.13.16.29-.03.04-.24-.05-.36-.07.06-.08.13-.15.2-.22Z"/>
  </g>
  <g>
    <text class="cls-4" transform="translate(152.46 50.24)"><tspan x="0" y="0">Academic Vista</tspan></text>
    <text class="cls-5" transform="translate(152.46 50.24)"><tspan class="cls-2" x="0" y="0">Academic </tspan><tspan class="cls-7" x="195.7" y="0">Vista</tspan></text>
  </g>
  <text class="cls-1" transform="translate(154.04 78.79)"><tspan x="0" y="0">&lt; Hub /&gt;</tspan></text>
</svg>