<svg xmlns="http://www.w3.org/2000/svg" xmlns:xlink="http://www.w3.org/1999/xlink" width="266" zoomAndPan="magnify" viewBox="0 0 199.5 54.75" height="73" preserveAspectRatio="xMidYMid meet" version="1.0"><defs><g/><clipPath id="c100b64b30"><path d="M 43 18 L 68 18 L 68 40 L 43 40 Z M 43 18 " clip-rule="nonzero"/></clipPath><clipPath id="bf2c36afa1"><path d="M 54.613281 11.410156 L 80.894531 23.941406 L 67.074219 52.917969 L 40.792969 40.386719 Z M 54.613281 11.410156 " clip-rule="nonzero"/></clipPath><clipPath id="ebc7147bc9"><path d="M 54.613281 11.410156 L 80.894531 23.941406 L 67.074219 52.917969 L 40.792969 40.386719 Z M 54.613281 11.410156 " clip-rule="nonzero"/></clipPath><clipPath id="ec8d102549"><path d="M 42 22 L 73 22 L 73 42 L 42 42 Z M 42 22 " clip-rule="nonzero"/></clipPath><clipPath id="f5f7ada3f7"><path d="M 54.613281 11.410156 L 80.894531 23.941406 L 67.074219 52.917969 L 40.792969 40.386719 Z M 54.613281 11.410156 " clip-rule="nonzero"/></clipPath><clipPath id="da776dde58"><path d="M 54.613281 11.410156 L 80.894531 23.941406 L 67.074219 52.917969 L 40.792969 40.386719 Z M 54.613281 11.410156 " clip-rule="nonzero"/></clipPath><clipPath id="4ed7c5bd2b"><path d="M 44 14 L 63 14 L 63 37 L 44 37 Z M 44 14 " clip-rule="nonzero"/></clipPath><clipPath id="79f4a0a0b4"><path d="M 54.613281 11.410156 L 80.894531 23.941406 L 67.074219 52.917969 L 40.792969 40.386719 Z M 54.613281 11.410156 " clip-rule="nonzero"/></clipPath><clipPath id="e4774b20da"><path d="M 54.613281 11.410156 L 80.894531 23.941406 L 67.074219 52.917969 L 40.792969 40.386719 Z M 54.613281 11.410156 " clip-rule="nonzero"/></clipPath><clipPath id="e8f9f9cc4d"><path d="M 13 18 L 38 18 L 38 40 L 13 40 Z M 13 18 " clip-rule="nonzero"/></clipPath><clipPath id="222fdee252"><path d="M 0.203125 23.804688 L 26.539062 11.386719 L 40.234375 40.421875 L 13.898438 52.84375 Z M 0.203125 23.804688 " clip-rule="nonzero"/></clipPath><clipPath id="b8bad2cb00"><path d="M 26.433594 11.4375 L 0.0976562 23.855469 L 13.792969 52.890625 L 40.128906 40.472656 Z M 26.433594 11.4375 " clip-rule="nonzero"/></clipPath><clipPath id="971521f912"><path d="M 8 22 L 39 22 L 39 42 L 8 42 Z M 8 22 " clip-rule="nonzero"/></clipPath><clipPath id="5140cc430a"><path d="M 0.203125 23.804688 L 26.539062 11.386719 L 40.234375 40.421875 L 13.898438 52.84375 Z M 0.203125 23.804688 " clip-rule="nonzero"/></clipPath><clipPath id="7e5c2ba59d"><path d="M 26.433594 11.4375 L 0.0976562 23.855469 L 13.792969 52.890625 L 40.128906 40.472656 Z M 26.433594 11.4375 " clip-rule="nonzero"/></clipPath><clipPath id="7008d104e3"><path d="M 18 14 L 37 14 L 37 37 L 18 37 Z M 18 14 " clip-rule="nonzero"/></clipPath><clipPath id="aeab014658"><path d="M 0.203125 23.804688 L 26.539062 11.386719 L 40.234375 40.421875 L 13.898438 52.84375 Z M 0.203125 23.804688 " clip-rule="nonzero"/></clipPath><clipPath id="a85bfc8f12"><path d="M 26.433594 11.4375 L 0.0976562 23.855469 L 13.792969 52.890625 L 40.128906 40.472656 Z M 26.433594 11.4375 " clip-rule="nonzero"/></clipPath><clipPath id="1cad2fe059"><path d="M 26.628906 1.800781 L 49 1.800781 L 49 9 L 26.628906 9 Z M 26.628906 1.800781 " clip-rule="nonzero"/></clipPath><clipPath id="c8dba1b750"><path d="M 31 8 L 49.027344 8 L 49.027344 35.394531 L 31 35.394531 Z M 31 8 " clip-rule="nonzero"/></clipPath></defs><g clip-path="url(#c100b64b30)"><g clip-path="url(#bf2c36afa1)"><g clip-path="url(#ebc7147bc9)"><path fill="#38c1ac" d="M 67.628906 36.914062 L 66.050781 18.519531 C 66.050781 18.519531 64.203125 18.742188 62.019531 19.421875 L 62.179688 21.261719 C 62.765625 21.234375 63.390625 21.246094 64.042969 21.316406 L 65.402344 34.644531 C 65.402344 34.644531 50.292969 32.90625 43.3125 39.09375 C 43.3125 39.09375 52.035156 33.859375 67.628906 36.914062 " fill-opacity="1" fill-rule="nonzero"/></g></g></g><g clip-path="url(#ec8d102549)"><g clip-path="url(#f5f7ada3f7)"><g clip-path="url(#da776dde58)"><path fill="#2e7792" d="M 70.972656 22.753906 C 70.972656 22.753906 69.125 22.976562 66.941406 23.65625 L 67.097656 25.5 C 67.6875 25.46875 68.3125 25.484375 68.964844 25.554688 L 70.324219 38.882812 C 70.324219 38.882812 52.421875 34.855469 42.578125 41.03125 C 42.578125 41.03125 53.429688 37.230469 72.550781 41.148438 L 70.972656 22.753906 " fill-opacity="1" fill-rule="nonzero"/></g></g></g><g clip-path="url(#4ed7c5bd2b)"><g clip-path="url(#79f4a0a0b4)"><g clip-path="url(#e4774b20da)"><path fill="#4b96e4" d="M 44.175781 36.8125 C 44.175781 36.8125 51.65625 30.863281 62.734375 32.921875 L 61.15625 14.53125 C 61.15625 14.53125 52.828125 15.53125 50.621094 19.796875 C 50.621094 19.796875 53.902344 16.765625 59.144531 17.328125 L 60.507812 30.65625 C 60.507812 30.65625 49.792969 30.277344 44.175781 36.8125 " fill-opacity="1" fill-rule="nonzero"/></g></g></g><g clip-path="url(#e8f9f9cc4d)"><g clip-path="url(#222fdee252)"><g clip-path="url(#b8bad2cb00)"><path fill="#38c1ac" d="M 13.304688 36.882812 L 14.964844 18.496094 C 14.964844 18.496094 16.808594 18.726562 18.992188 19.417969 L 18.824219 21.257812 C 18.238281 21.226562 17.613281 21.238281 16.960938 21.304688 L 15.542969 34.625 C 15.542969 34.625 30.660156 32.953125 37.613281 39.171875 C 37.613281 39.171875 28.914062 33.898438 13.304688 36.882812 " fill-opacity="1" fill-rule="nonzero"/></g></g></g><g clip-path="url(#971521f912)"><g clip-path="url(#5140cc430a)"><g clip-path="url(#7e5c2ba59d)"><path fill="#2e7792" d="M 10.023438 22.710938 C 10.023438 22.710938 11.871094 22.941406 14.050781 23.628906 L 13.886719 25.472656 C 13.296875 25.441406 12.675781 25.453125 12.019531 25.519531 L 10.601562 38.839844 C 10.601562 38.839844 28.523438 34.890625 38.339844 41.113281 C 38.339844 41.113281 27.503906 37.261719 8.367188 41.097656 L 10.023438 22.710938 " fill-opacity="1" fill-rule="nonzero"/></g></g></g><g clip-path="url(#7008d104e3)"><g clip-path="url(#aeab014658)"><g clip-path="url(#a85bfc8f12)"><path fill="#4b96e4" d="M 36.757812 36.886719 C 36.757812 36.886719 29.304688 30.90625 18.21875 32.914062 L 19.878906 14.527344 C 19.878906 14.527344 28.199219 15.566406 30.390625 19.839844 C 30.390625 19.839844 27.121094 16.796875 21.875 17.335938 L 20.457031 30.65625 C 20.457031 30.65625 31.171875 30.328125 36.757812 36.886719 " fill-opacity="1" fill-rule="nonzero"/></g></g></g><g clip-path="url(#1cad2fe059)"><path fill="#00ffe0" d="M 48.476562 5.519531 C 48.453125 5.882812 48.199219 6.1875 47.859375 6.3125 L 40.707031 8.902344 C 40.609375 8.9375 40.503906 8.957031 40.402344 8.957031 C 40.296875 8.957031 40.191406 8.9375 40.09375 8.902344 L 33.441406 6.492188 C 33.230469 6.417969 33.125 6.175781 33.226562 5.96875 C 33.308594 5.789062 33.527344 5.710938 33.714844 5.777344 L 40.355469 8.183594 C 40.386719 8.195312 40.417969 8.195312 40.445312 8.183594 L 47.625 5.582031 C 47.695312 5.558594 47.710938 5.503906 47.710938 5.460938 C 47.710938 5.425781 47.703125 5.363281 47.628906 5.335938 L 40.449219 2.59375 C 40.417969 2.582031 40.382812 2.582031 40.355469 2.59375 L 35.390625 4.488281 C 35.566406 4.554688 35.746094 4.621094 35.929688 4.695312 C 38.566406 5.757812 40.371094 4.867188 41.019531 4.4375 C 41.082031 4.394531 41.15625 4.375 41.230469 4.375 C 41.335938 4.375 41.441406 4.417969 41.515625 4.503906 C 41.671875 4.679688 41.632812 4.949219 41.4375 5.078125 C 40.648438 5.597656 38.585938 6.589844 35.644531 5.40625 C 31.527344 3.75 29.90625 5.171875 29.394531 5.878906 L 29.863281 6.164062 L 28.707031 8.03125 C 28.414062 8.5 27.800781 8.660156 27.316406 8.386719 C 26.804688 8.097656 26.636719 7.441406 26.941406 6.941406 L 28.082031 5.085938 L 28.746094 5.488281 C 29.300781 4.722656 30.824219 3.3125 34.1875 4.128906 L 40.082031 1.878906 C 40.285156 1.800781 40.515625 1.800781 40.722656 1.878906 L 47.902344 4.621094 C 48.269531 4.761719 48.503906 5.117188 48.476562 5.519531 Z M 48.476562 5.519531 " fill-opacity="1" fill-rule="nonzero"/></g><g clip-path="url(#c8dba1b750)"><path fill="#00ffe0" d="M 43.839844 8.648438 L 40.707031 9.78125 C 40.609375 9.816406 40.503906 9.835938 40.402344 9.835938 C 40.296875 9.835938 40.195312 9.816406 40.09375 9.78125 L 36.851562 8.605469 C 35.386719 13.664062 31.386719 17.746094 31.386719 17.746094 C 32.539062 19.101562 33.671875 20.832031 34.734375 22.757812 L 37.949219 29.695312 C 38.546875 31.230469 39.507812 33.589844 39.953125 35.035156 L 39.851562 27.679688 C 39.902344 26.589844 39.902344 21.097656 39.875 18.6875 C 39.527344 18.507812 39.285156 18.144531 39.285156 17.726562 C 39.285156 17.140625 39.753906 16.664062 40.339844 16.652344 C 40.925781 16.664062 41.394531 17.140625 41.394531 17.726562 C 41.394531 18.144531 41.152344 18.507812 40.804688 18.6875 C 40.777344 21.097656 40.777344 26.589844 40.828125 27.679688 L 40.726562 35.035156 C 41.171875 33.589844 42.132812 31.230469 42.730469 29.695312 L 45.945312 22.757812 C 47.007812 20.832031 48.140625 19.101562 49.292969 17.746094 C 49.296875 17.746094 45.3125 13.683594 43.839844 8.648438 Z M 43.839844 8.648438 " fill-opacity="1" fill-rule="nonzero"/></g><g fill="#00ffe0" fill-opacity="1"><g transform="translate(73.396116, 15.358743)"><g><path d="M 0.195312 0 L 0.335938 0 L 1.316406 -2.167969 L 4.0625 -2.167969 L 5.042969 0 L 7.1875 0 L 3.496094 -7.328125 Z M 1.378906 -2.296875 L 2.695312 -5.1875 L 4.011719 -2.296875 Z M 1.378906 -2.296875 "/></g></g></g><g fill="#00ffe0" fill-opacity="1"><g transform="translate(82.833751, 15.358743)"><g><path d="M 4.167969 0.128906 L 4.179688 0.128906 C 5.058594 0.128906 6.191406 -0.207031 6.8125 -1.355469 L 6.65625 -1.355469 C 5.84375 -0.101562 4.863281 -0.0390625 4.308594 -0.0390625 C 2.941406 -0.0390625 2.4375 -1.535156 2.4375 -3.597656 C 2.4375 -5.328125 2.8125 -7.148438 4.269531 -7.148438 C 4.914062 -7.148438 5.445312 -6.695312 5.289062 -5.84375 C 5.210938 -5.40625 4.800781 -5.355469 4.800781 -5.355469 C 4.800781 -4.785156 5.238281 -4.28125 5.921875 -4.28125 C 6.464844 -4.28125 6.875 -4.644531 6.875 -5.199219 C 6.875 -6.308594 5.46875 -7.316406 4.207031 -7.316406 C 2.039062 -7.316406 0.324219 -5.636719 0.324219 -3.585938 C 0.324219 -1.535156 2.039062 0.128906 4.167969 0.128906 Z M 4.167969 0.128906 "/></g></g></g><g fill="#00ffe0" fill-opacity="1"><g transform="translate(92.090924, 15.358743)"><g><path d="M 0.195312 0 L 0.335938 0 L 1.316406 -2.167969 L 4.0625 -2.167969 L 5.042969 0 L 7.1875 0 L 3.496094 -7.328125 Z M 1.378906 -2.296875 L 2.695312 -5.1875 L 4.011719 -2.296875 Z M 1.378906 -2.296875 "/></g></g></g><g fill="#00ffe0" fill-opacity="1"><g transform="translate(101.528558, 15.358743)"><g><path d="M 0.644531 0 L 3.675781 0 C 5.792969 0 7.496094 -1.613281 7.496094 -3.613281 C 7.496094 -5.613281 5.792969 -7.226562 3.675781 -7.226562 L 0.644531 -7.226562 Z M 2.59375 -0.128906 L 2.59375 -7.09375 L 3.675781 -7.09375 C 5.070312 -7.09375 5.429688 -5.261719 5.429688 -3.613281 C 5.429688 -1.84375 5.121094 -0.128906 3.675781 -0.128906 Z M 2.59375 -0.128906 "/></g></g></g><g fill="#00ffe0" fill-opacity="1"><g transform="translate(111.404457, 15.358743)"><g><path d="M 0.644531 0 L 6.410156 0 L 6.632812 -2.464844 L 6.503906 -2.464844 C 6.410156 -1.121094 4.992188 -0.128906 3.496094 -0.128906 L 2.59375 -0.128906 L 2.59375 -3.613281 L 2.773438 -3.613281 C 3.84375 -3.585938 4.542969 -3.019531 4.542969 -2.039062 L 4.695312 -2.039062 L 4.695312 -5.316406 L 4.542969 -5.316406 C 4.542969 -4.320312 3.84375 -3.753906 2.746094 -3.742188 L 2.59375 -3.742188 L 2.59375 -7.09375 L 3.496094 -7.09375 C 4.992188 -7.09375 6.039062 -6.167969 6.039062 -4.824219 L 6.167969 -4.824219 L 6.167969 -7.226562 L 0.644531 -7.226562 Z M 0.644531 0 "/></g></g></g><g fill="#00ffe0" fill-opacity="1"><g transform="translate(120.738971, 15.358743)"><g><path d="M 3.765625 0.140625 L 6.773438 -6.902344 L 6.773438 0 L 8.722656 0 L 8.722656 -7.226562 L 6.773438 -7.226562 L 4.863281 -2.671875 L 2.773438 -7.226562 L 0.644531 -7.226562 L 0.644531 0 L 0.773438 0 L 0.773438 -6.929688 Z M 3.765625 0.140625 "/></g></g></g><g fill="#00ffe0" fill-opacity="1"><g transform="translate(132.161708, 15.358743)"><g><path d="M 0.644531 0 L 2.359375 0 L 2.359375 -7.226562 L 0.644531 -7.226562 Z M 0.644531 0 "/></g></g></g><g fill="#00ffe0" fill-opacity="1"><g transform="translate(137.229523, 15.358743)"><g><path d="M 4.167969 0.128906 L 4.179688 0.128906 C 5.058594 0.128906 6.191406 -0.207031 6.8125 -1.355469 L 6.65625 -1.355469 C 5.84375 -0.101562 4.863281 -0.0390625 4.308594 -0.0390625 C 2.941406 -0.0390625 2.4375 -1.535156 2.4375 -3.597656 C 2.4375 -5.328125 2.8125 -7.148438 4.269531 -7.148438 C 4.914062 -7.148438 5.445312 -6.695312 5.289062 -5.84375 C 5.210938 -5.40625 4.800781 -5.355469 4.800781 -5.355469 C 4.800781 -4.785156 5.238281 -4.28125 5.921875 -4.28125 C 6.464844 -4.28125 6.875 -4.644531 6.875 -5.199219 C 6.875 -6.308594 5.46875 -7.316406 4.207031 -7.316406 C 2.039062 -7.316406 0.324219 -5.636719 0.324219 -3.585938 C 0.324219 -1.535156 2.039062 0.128906 4.167969 0.128906 Z M 4.167969 0.128906 "/></g></g></g><g fill="#00ffe0" fill-opacity="1"><g transform="translate(146.486699, 15.358743)"><g/></g></g><g fill="#00ffe0" fill-opacity="1"><g transform="translate(151.167815, 15.358743)"><g><path d="M 3.894531 0.128906 L 7.210938 -7.226562 L 7.070312 -7.226562 L 4.695312 -2.011719 L 2.335938 -7.226562 L 0.195312 -7.226562 Z M 3.894531 0.128906 "/></g></g></g><g fill="#00ffe0" fill-opacity="1"><g transform="translate(160.631233, 15.358743)"><g><path d="M 0.644531 0 L 2.359375 0 L 2.359375 -7.226562 L 0.644531 -7.226562 Z M 0.644531 0 "/></g></g></g><g fill="#00ffe0" fill-opacity="1"><g transform="translate(165.699053, 15.358743)"><g><path d="M 3.484375 0.128906 C 5.171875 0.128906 6.644531 -0.761719 6.4375 -2.375 C 6.257812 -4.28125 2.089844 -4.425781 2.089844 -6.179688 C 2.089844 -6.875 2.683594 -7.148438 3.367188 -7.148438 C 4.128906 -7.148438 4.632812 -6.824219 4.632812 -6.308594 C 4.632812 -5.664062 4.191406 -5.613281 4.191406 -5.613281 C 4.191406 -5.160156 4.554688 -4.746094 5.109375 -4.746094 C 5.546875 -4.746094 5.882812 -5.03125 5.882812 -5.484375 C 5.882812 -6.644531 4.644531 -7.328125 3.339844 -7.328125 C 1.742188 -7.328125 0.386719 -6.605469 0.566406 -4.992188 C 0.800781 -2.890625 4.914062 -2.632812 4.914062 -1.007812 C 4.914062 -0.21875 3.949219 -0.0390625 3.40625 -0.0390625 C 2.695312 -0.0390625 1.859375 -0.347656 1.859375 -1.097656 C 1.859375 -1.160156 1.859375 -1.226562 1.871094 -1.304688 C 1.933594 -1.703125 2.320312 -1.753906 2.320312 -1.753906 C 2.320312 -2.285156 1.910156 -2.746094 1.277344 -2.746094 C 0.773438 -2.746094 0.386719 -2.414062 0.386719 -1.894531 C 0.386719 -0.632812 1.894531 0.128906 3.484375 0.128906 Z M 3.484375 0.128906 "/></g></g></g><g fill="#00ffe0" fill-opacity="1"><g transform="translate(174.60819, 15.358743)"><g><path d="M 2.863281 0 L 4.8125 0 L 4.8125 -7.09375 C 6.308594 -7.09375 7.355469 -6.167969 7.355469 -4.824219 L 7.484375 -4.824219 L 7.484375 -7.226562 L 0.195312 -7.226562 L 0.195312 -4.824219 L 0.324219 -4.824219 C 0.324219 -6.167969 1.367188 -7.09375 2.863281 -7.09375 Z M 2.863281 0 "/></g></g></g><g fill="#00ffe0" fill-opacity="1"><g transform="translate(184.342306, 15.358743)"><g><path d="M 0.195312 0 L 0.335938 0 L 1.316406 -2.167969 L 4.0625 -2.167969 L 5.042969 0 L 7.1875 0 L 3.496094 -7.328125 Z M 1.378906 -2.296875 L 2.695312 -5.1875 L 4.011719 -2.296875 Z M 1.378906 -2.296875 "/></g></g></g><g fill="#00efae" fill-opacity="1"><g transform="translate(140.332611, 33.050638)"><g><path d="M 1.453125 -2.984375 C 1.628906 -2.847656 1.851562 -2.640625 2.125 -2.359375 C 2.4375 -2.035156 2.648438 -1.820312 2.765625 -1.71875 C 2.878906 -1.625 2.9375 -1.515625 2.9375 -1.390625 C 2.9375 -1.273438 2.890625 -1.171875 2.796875 -1.078125 C 2.710938 -0.984375 2.613281 -0.9375 2.5 -0.9375 C 2.40625 -0.9375 2.316406 -0.972656 2.234375 -1.046875 C 2.097656 -1.140625 1.820312 -1.410156 1.40625 -1.859375 C 1.070312 -2.191406 0.757812 -2.414062 0.46875 -2.53125 C 0.21875 -2.625 0.09375 -2.757812 0.09375 -2.9375 C 0.09375 -3.101562 0.203125 -3.238281 0.421875 -3.34375 C 0.722656 -3.488281 1.054688 -3.75 1.421875 -4.125 C 1.921875 -4.65625 2.21875 -4.957031 2.3125 -5.03125 C 2.40625 -5.113281 2.503906 -5.15625 2.609375 -5.15625 C 2.722656 -5.15625 2.820312 -5.109375 2.90625 -5.015625 C 3 -4.929688 3.046875 -4.828125 3.046875 -4.703125 C 3.046875 -4.597656 3 -4.492188 2.90625 -4.390625 C 2.59375 -4.066406 2.109375 -3.597656 1.453125 -2.984375 Z M 1.453125 -2.984375 "/></g></g></g><g fill="#00efae" fill-opacity="1"><g transform="translate(145.720011, 33.050638)"><g/></g></g><g fill="#00efae" fill-opacity="1"><g transform="translate(150.286282, 33.050638)"><g><path d="M 7.078125 -6.84375 C 7.023438 -6.707031 7 -6.507812 7 -6.25 C 7 -6.15625 7 -6.007812 7 -5.8125 C 7.007812 -5.625 7.015625 -5.484375 7.015625 -5.390625 C 7.015625 -5.066406 6.988281 -4.582031 6.9375 -3.9375 C 6.882812 -3.289062 6.859375 -2.804688 6.859375 -2.484375 C 6.859375 -2.242188 6.875 -1.875 6.90625 -1.375 C 6.9375 -0.882812 6.953125 -0.515625 6.953125 -0.265625 C 6.953125 -0.128906 6.90625 -0.0195312 6.8125 0.0625 C 6.726562 0.15625 6.625 0.203125 6.5 0.203125 C 6.363281 0.203125 6.25 0.15625 6.15625 0.0625 C 6.070312 -0.0195312 6.03125 -0.128906 6.03125 -0.265625 C 6.03125 -0.515625 6.007812 -0.882812 5.96875 -1.375 C 5.9375 -1.875 5.921875 -2.242188 5.921875 -2.484375 C 5.921875 -2.722656 5.925781 -2.960938 5.9375 -3.203125 C 5.382812 -3.191406 4.703125 -3.109375 3.890625 -2.953125 L 1.84375 -2.5625 C 1.84375 -2.269531 1.8125 -1.851562 1.75 -1.3125 C 1.695312 -0.78125 1.671875 -0.367188 1.671875 -0.078125 C 1.671875 0.0546875 1.625 0.171875 1.53125 0.265625 C 1.445312 0.359375 1.335938 0.40625 1.203125 0.40625 C 1.066406 0.40625 0.953125 0.359375 0.859375 0.265625 C 0.773438 0.171875 0.734375 0.0546875 0.734375 -0.078125 C 0.734375 -0.421875 0.757812 -0.929688 0.8125 -1.609375 C 0.875 -2.296875 0.90625 -2.8125 0.90625 -3.15625 C 0.90625 -3.332031 0.898438 -3.597656 0.890625 -3.953125 C 0.878906 -4.316406 0.875 -4.585938 0.875 -4.765625 C 0.875 -5.023438 0.890625 -5.410156 0.921875 -5.921875 C 0.953125 -6.429688 0.96875 -6.816406 0.96875 -7.078125 C 0.96875 -7.210938 1.007812 -7.320312 1.09375 -7.40625 C 1.1875 -7.5 1.300781 -7.546875 1.4375 -7.546875 C 1.570312 -7.546875 1.679688 -7.5 1.765625 -7.40625 C 1.859375 -7.320312 1.90625 -7.210938 1.90625 -7.078125 C 1.90625 -6.816406 1.882812 -6.425781 1.84375 -5.90625 C 1.8125 -5.394531 1.796875 -5.007812 1.796875 -4.75 L 1.828125 -3.515625 L 3.90625 -3.90625 C 4.738281 -4.0625 5.441406 -4.144531 6.015625 -4.15625 C 6.046875 -4.613281 6.0625 -5.3125 6.0625 -6.25 C 6.0625 -6.5 6.101562 -6.75 6.1875 -7 C 6.300781 -7.34375 6.453125 -7.515625 6.640625 -7.515625 C 6.765625 -7.515625 6.875 -7.46875 6.96875 -7.375 C 7.070312 -7.289062 7.125 -7.179688 7.125 -7.046875 C 7.125 -6.992188 7.109375 -6.925781 7.078125 -6.84375 Z M 7.078125 -6.84375 "/></g></g></g><g fill="#00efae" fill-opacity="1"><g transform="translate(159.521788, 33.050638)"><g><path d="M 3.84375 0.1875 C 2.832031 0.1875 2.078125 -0.0976562 1.578125 -0.671875 C 1.179688 -1.140625 0.929688 -1.832031 0.828125 -2.75 C 0.773438 -3.15625 0.75 -3.972656 0.75 -5.203125 C 0.75 -5.660156 0.757812 -6.03125 0.78125 -6.3125 C 0.800781 -6.601562 0.832031 -6.804688 0.875 -6.921875 C 0.945312 -7.160156 1.09375 -7.28125 1.3125 -7.28125 C 1.601562 -7.28125 1.75 -7.003906 1.75 -6.453125 L 1.75 -3.609375 C 1.75 -1.640625 2.4375 -0.65625 3.8125 -0.65625 C 5.101562 -0.65625 5.75 -2.3125 5.75 -5.625 C 5.75 -5.738281 5.75 -5.894531 5.75 -6.09375 C 5.75 -6.289062 5.75 -6.421875 5.75 -6.484375 C 5.75 -6.679688 5.785156 -6.859375 5.859375 -7.015625 C 5.953125 -7.203125 6.085938 -7.296875 6.265625 -7.296875 C 6.585938 -7.296875 6.75 -7.078125 6.75 -6.640625 C 6.75 -6.503906 6.75 -6.300781 6.75 -6.03125 C 6.75 -5.757812 6.75 -5.5625 6.75 -5.4375 C 6.75 -1.6875 5.78125 0.1875 3.84375 0.1875 Z M 3.84375 0.1875 "/></g></g></g><g fill="#00efae" fill-opacity="1"><g transform="translate(168.446335, 33.050638)"><g><path d="M 4.3125 -0.1875 C 3.582031 0.09375 2.648438 0.234375 1.515625 0.234375 C 1.367188 0.234375 1.234375 0.164062 1.109375 0.03125 C 0.984375 -0.09375 0.921875 -0.226562 0.921875 -0.375 L 0.921875 -1.78125 C 0.921875 -2.25 0.953125 -2.910156 1.015625 -3.765625 C 1.078125 -4.691406 1.113281 -5.363281 1.125 -5.78125 C 1.125 -6.070312 1.140625 -6.515625 1.171875 -7.109375 C 1.191406 -7.273438 1.25 -7.382812 1.34375 -7.4375 C 1.78125 -7.570312 2.28125 -7.640625 2.84375 -7.640625 C 3.40625 -7.640625 3.953125 -7.441406 4.484375 -7.046875 C 5.085938 -6.597656 5.390625 -6.046875 5.390625 -5.390625 C 5.390625 -4.554688 5.066406 -3.898438 4.421875 -3.421875 C 4.898438 -3.210938 5.257812 -2.984375 5.5 -2.734375 C 5.75 -2.484375 5.875 -2.207031 5.875 -1.90625 C 5.875 -1.519531 5.660156 -1.140625 5.234375 -0.765625 C 4.941406 -0.515625 4.632812 -0.320312 4.3125 -0.1875 Z M 2.84375 -6.640625 C 2.488281 -6.640625 2.238281 -6.628906 2.09375 -6.609375 L 2.078125 -5.765625 L 1.984375 -3.875 C 2.441406 -3.832031 2.6875 -3.816406 2.71875 -3.828125 C 3.207031 -3.867188 3.609375 -4.019531 3.921875 -4.28125 C 4.253906 -4.570312 4.421875 -4.941406 4.421875 -5.390625 C 4.421875 -5.703125 4.25 -5.988281 3.90625 -6.25 C 3.570312 -6.507812 3.21875 -6.640625 2.84375 -6.640625 Z M 3.375 -2.75 L 2.875 -2.828125 C 2.820312 -2.828125 2.753906 -2.820312 2.671875 -2.8125 C 2.585938 -2.8125 2.523438 -2.8125 2.484375 -2.8125 C 2.304688 -2.8125 2.117188 -2.828125 1.921875 -2.859375 C 1.898438 -2.453125 1.890625 -2.085938 1.890625 -1.765625 L 1.890625 -0.765625 C 2.734375 -0.796875 3.425781 -0.914062 3.96875 -1.125 C 4.195312 -1.207031 4.410156 -1.34375 4.609375 -1.53125 C 4.804688 -1.695312 4.90625 -1.820312 4.90625 -1.90625 C 4.90625 -2.0625 4.703125 -2.234375 4.296875 -2.421875 C 3.984375 -2.566406 3.675781 -2.675781 3.375 -2.75 Z M 3.375 -2.75 "/></g></g></g><g fill="#00efae" fill-opacity="1"><g transform="translate(176.311682, 33.050638)"><g/></g></g><g fill="#00efae" fill-opacity="1"><g transform="translate(180.877952, 33.050638)"><g><path d="M 0.859375 0.4375 C 0.742188 0.4375 0.640625 0.394531 0.546875 0.3125 C 0.453125 0.226562 0.40625 0.128906 0.40625 0.015625 C 0.40625 -0.0351562 0.414062 -0.09375 0.4375 -0.15625 C 0.695312 -0.851562 1.175781 -1.851562 1.875 -3.15625 C 2.570312 -4.46875 3.050781 -5.472656 3.3125 -6.171875 C 3.726562 -7.335938 4.046875 -7.914062 4.265625 -7.90625 C 4.390625 -7.894531 4.492188 -7.847656 4.578125 -7.765625 C 4.671875 -7.691406 4.71875 -7.59375 4.71875 -7.46875 C 4.71875 -7.394531 4.703125 -7.304688 4.671875 -7.203125 L 4.125 -5.890625 C 3.90625 -5.285156 3.59375 -4.59375 3.1875 -3.8125 L 2.140625 -1.796875 L 1.25 0.15625 C 1.164062 0.34375 1.035156 0.4375 0.859375 0.4375 Z M 0.859375 0.4375 "/></g></g></g><g fill="#00efae" fill-opacity="1"><g transform="translate(187.562624, 33.050638)"><g><path d="M 3.578125 -3.21875 C 3.578125 -3.101562 3.515625 -2.988281 3.390625 -2.875 C 2.617188 -2.15625 1.8125 -1.523438 0.96875 -0.984375 C 0.875 -0.929688 0.789062 -0.90625 0.71875 -0.90625 C 0.601562 -0.90625 0.5 -0.953125 0.40625 -1.046875 C 0.320312 -1.140625 0.28125 -1.242188 0.28125 -1.359375 C 0.28125 -1.484375 0.34375 -1.597656 0.46875 -1.703125 L 2.359375 -3.140625 C 2.066406 -3.328125 1.707031 -3.617188 1.28125 -4.015625 C 0.769531 -4.503906 0.515625 -4.84375 0.515625 -5.03125 C 0.515625 -5.144531 0.554688 -5.242188 0.640625 -5.328125 C 0.734375 -5.421875 0.835938 -5.46875 0.953125 -5.46875 C 1.078125 -5.46875 1.1875 -5.410156 1.28125 -5.296875 C 2.019531 -4.472656 2.691406 -3.90625 3.296875 -3.59375 C 3.484375 -3.5 3.578125 -3.375 3.578125 -3.21875 Z M 3.578125 -3.21875 "/></g></g></g></svg>